<svg xmlns="http://www.w3.org/2000/svg" width="1280" height="720" viewBox="0 0 1280 720" role="img" aria-labelledby="title desc">
  <title id="title">Coodra real context view</title>
  <desc id="desc">Animated dashboard composition showing context-rich inventory decision data, trend lines, risk tags, and margin impact.</desc>
  <defs>
    <linearGradient id="bg" x1="0" y1="0" x2="1" y2="1">
      <stop offset="0%" stop-color="#f7fbff"/>
      <stop offset="55%" stop-color="#eff6ff"/>
      <stop offset="100%" stop-color="#e8f2ff"/>
    </linearGradient>
    <radialGradient id="glowA" cx="0.2" cy="0.15" r="0.7">
      <stop offset="0%" stop-color="#2fd7c6" stop-opacity="0.26"/>
      <stop offset="100%" stop-color="#2fd7c6" stop-opacity="0"/>
    </radialGradient>
    <radialGradient id="glowB" cx="0.8" cy="0.85" r="0.8">
      <stop offset="0%" stop-color="#7aece0" stop-opacity="0.2"/>
      <stop offset="100%" stop-color="#7aece0" stop-opacity="0"/>
    </radialGradient>
    <linearGradient id="card" x1="0" y1="0" x2="1" y2="1">
      <stop offset="0%" stop-color="#ffffff"/>
      <stop offset="100%" stop-color="#f5faff"/>
    </linearGradient>
    <linearGradient id="tealStroke" x1="0" y1="0" x2="1" y2="0">
      <stop offset="0%" stop-color="#2fd7c6"/>
      <stop offset="100%" stop-color="#1fc4ba"/>
    </linearGradient>
    <filter id="soft" x="-20%" y="-20%" width="140%" height="140%">
      <feGaussianBlur stdDeviation="8"/>
    </filter>
    <style>
      .float { animation: float 6s ease-in-out infinite; }
      .float-delay { animation: float 6s ease-in-out infinite 1.8s; }
      .pulse { animation: pulse 2.8s ease-in-out infinite; }
      .trace { stroke-dasharray: 8 10; animation: dash 2.3s linear infinite; }
      .bar { transform-origin: center bottom; animation: bars 3.2s ease-in-out infinite; }
      .bar2 { animation-delay: .35s; }
      .bar3 { animation-delay: .7s; }
      .spark { animation: blink 2s ease-in-out infinite; }
      .spark2 { animation-delay: .7s; }
      .spark3 { animation-delay: 1.2s; }
      @keyframes float { 0%,100% { transform: translateY(0px); } 50% { transform: translateY(-8px); } }
      @keyframes pulse { 0%,100% { opacity: .45; transform: scale(1); } 50% { opacity: .9; transform: scale(1.08); } }
      @keyframes dash { to { stroke-dashoffset: -72; } }
      @keyframes bars { 0%,100% { transform: scaleY(.8); } 50% { transform: scaleY(1.08); } }
      @keyframes blink { 0%,100% { opacity: .35; } 50% { opacity: 1; } }
    </style>
  </defs>

  <rect width="1280" height="720" fill="url(#bg)"/>
  <circle cx="240" cy="120" r="280" fill="url(#glowA)" class="pulse"/>
  <circle cx="1090" cy="590" r="300" fill="url(#glowB)" class="pulse"/>

  <rect x="92" y="72" width="1096" height="576" rx="26" fill="#f4f9ff" stroke="#c9dced" stroke-opacity=".95"/>
  <rect x="118" y="98" width="1044" height="74" rx="18" fill="#ffffff" stroke="#d7e6f3" stroke-opacity=".9"/>
  <text x="150" y="142" fill="#16314f" font-size="30" font-family="Inter, Segoe UI, sans-serif" font-weight="700">Context-rich inventory decision</text>
  <text x="830" y="142" fill="#138f87" font-size="20" font-family="Inter, Segoe UI, sans-serif">Margin Impact +12.4%</text>

  <g class="float">
    <rect x="142" y="206" width="660" height="390" rx="20" fill="url(#card)" stroke="#d2e4f3" stroke-opacity=".95"/>
    <text x="174" y="246" fill="#27496b" font-size="24" font-family="Inter, Segoe UI, sans-serif" font-weight="600">Product Demand + Stock Context</text>

    <polyline points="184,454 260,396 328,412 402,332 468,352 542,286 604,300 670,238 744,266"
      fill="none" stroke="url(#tealStroke)" stroke-width="6" stroke-linecap="round" stroke-linejoin="round"/>
    <polyline points="184,500 258,490 330,458 398,448 470,430 538,402 610,386 680,350 744,338"
      fill="none" stroke="#7ea3c4" stroke-opacity=".82" stroke-width="4" stroke-linecap="round" stroke-linejoin="round"/>

    <line x1="184" y1="536" x2="748" y2="536" stroke="#bfd3e5"/>
    <line x1="184" y1="536" x2="184" y2="286" stroke="#bfd3e5"/>

    <g fill="#1eb9ad" class="spark">
      <circle cx="260" cy="396" r="6"/>
      <circle cx="402" cy="332" r="6" class="spark2"/>
      <circle cx="542" cy="286" r="6" class="spark3"/>
      <circle cx="670" cy="238" r="6" class="spark2"/>
    </g>
  </g>

  <g class="float-delay">
    <rect x="834" y="206" width="302" height="390" rx="20" fill="url(#card)" stroke="#d2e4f3" stroke-opacity=".95"/>
    <text x="866" y="246" fill="#27496b" font-size="22" font-family="Inter, Segoe UI, sans-serif" font-weight="600">Decision Context</text>

    <rect x="864" y="272" width="242" height="92" rx="14" fill="#f6fbff" stroke="#d2e5f5" stroke-opacity=".9"/>
    <text x="886" y="306" fill="#12324e" font-size="20" font-family="Inter, Segoe UI, sans-serif" font-weight="700">SKU A42</text>
    <text x="886" y="336" fill="#4e6f90" font-size="16" font-family="Inter, Segoe UI, sans-serif">Lead time 6 days - Risk high</text>

    <rect x="864" y="384" width="242" height="74" rx="14" fill="#f1f9ff" stroke="#d2e5f5" stroke-opacity=".9"/>
    <text x="886" y="416" fill="#0f857f" font-size="18" font-family="Inter, Segoe UI, sans-serif" font-weight="600">Reorder now: 180 units</text>
    <text x="886" y="442" fill="#4f7395" font-size="15" font-family="Inter, Segoe UI, sans-serif">Expected stockout: 4 days</text>

    <rect x="864" y="478" width="74" height="86" rx="12" fill="#d8e9f8" class="bar"/>
    <rect x="948" y="444" width="74" height="120" rx="12" fill="#c8e0f3" class="bar bar2"/>
    <rect x="1032" y="412" width="74" height="152" rx="12" fill="#bbd7ec" class="bar bar3"/>
  </g>

  <path d="M794 366 C 820 346, 838 346, 856 358" fill="none" stroke="#1eb9ad" stroke-width="3" class="trace"/>
  <path d="M794 434 C 820 454, 838 454, 856 442" fill="none" stroke="#1eb9ad" stroke-width="3" class="trace"/>

  <rect x="96" y="644" width="300" height="8" rx="4" fill="#2fd7c6" opacity=".55" filter="url(#soft)"/>
</svg>
