<svg xmlns="http://www.w3.org/2000/svg" viewBox="0 0 20 30" role="img" aria-label="Lightspeed">
  <path fill="#E8202E" d="M9.85 0 11.25 2.39932C11.55 2.89918 11.55 3.49901 11.25 3.99887L3.05 18.1949 6.85 24.893C7.45 25.9927 8.55 26.5925 9.75 26.5925 10.95 26.5925 12.05 25.8927 12.75 24.893L16.65 18.1949 15.65 16.3954 11.25 23.9932C10.95 24.4931 10.45 24.793 9.85 24.793 9.25 24.793 8.75 24.4931 8.45 23.9932L5.15 18.1949 12.75 4.99859 14.15 7.39792C14.45 7.89778 14.45 8.49761 14.15 8.99747L8.85 18.1949 9.85 19.9944 15.65 9.99718 19.45 16.5953C20.05 17.595 20.05 18.8947 19.45 19.8944L15.65 26.5925C15.05 27.5922 13.25 29.8916 9.95 29.8916 6.65 29.8916 4.85 27.5922 4.25 26.5925L0.45 19.8944C-0.15 18.8947-0.15 17.595 0.45 16.5953L9.85 0Z"/>
</svg>
