<svg width="64" height="64" viewBox="0 0 64 64" xmlns="http://www.w3.org/2000/svg" role="img" aria-label="Odoo">
  <rect width="64" height="64" rx="14" fill="#ffffff"/>
  <path d="M13 31.8c0-5.4 3.8-9.1 9.2-9.1s9.2 3.7 9.2 9.1-3.8 9.2-9.2 9.2S13 37.2 13 31.8Zm5.2 0c0 2.8 1.6 4.6 4 4.6s4-1.8 4-4.6-1.6-4.5-4-4.5-4 1.8-4 4.5Z" fill="#714B67"/>
  <path d="M32.5 31.8c0-5.4 3.8-9.1 9.2-9.1s9.2 3.7 9.2 9.1-3.8 9.2-9.2 9.2-9.2-3.8-9.2-9.2Zm5.2 0c0 2.8 1.6 4.6 4 4.6s4-1.8 4-4.6-1.6-4.5-4-4.5-4 1.8-4 4.5Z" fill="#875A7B"/>
</svg>
