<svg xmlns="http://www.w3.org/2000/svg" viewBox="0 0 64 64" role="img" aria-label="WooCommerce">
  <rect width="64" height="64" rx="14" fill="#7f54b3"/>
  <path fill="#fff" d="M13.2 23.4h37.6c2 0 3.7 1.6 3.7 3.7v9.8c0 2-1.6 3.7-3.7 3.7H31.7l-8 5.1c-1 .6-2.2-.3-1.9-1.4l1-3.7h-9.6c-2 0-3.7-1.6-3.7-3.7v-9.8c0-2.1 1.7-3.7 3.7-3.7Z"/>
  <path fill="#7f54b3" d="M17.4 28.4h3.1l1.1 6.4 1.6-6.4h2.7l1.6 6.4 1.1-6.4h3l-2.5 9.4h-3l-1.6-6-1.6 6h-3l-2.5-9.4Zm19 9.7c-3.1 0-5.2-2-5.2-5s2.1-5 5.2-5 5.2 2 5.2 5-2.1 5-5.2 5Zm0-2.6c1.3 0 2.1-.9 2.1-2.4s-.8-2.4-2.1-2.4-2.1.9-2.1 2.4.8 2.4 2.1 2.4Zm10.5 2.6c-3.1 0-5.2-2-5.2-5s2.1-5 5.2-5c3 0 5.1 2 5.1 5s-2.1 5-5.1 5Zm0-2.6c1.3 0 2.1-.9 2.1-2.4s-.8-2.4-2.1-2.4-2.1.9-2.1 2.4.8 2.4 2.1 2.4Z"/>
</svg>
