<?xml version="1.0" encoding="UTF-8" standalone="no"?>
<!-- Created with Inkscape (http://www.inkscape.org/) -->

<svg
   xmlns:dc="http://purl.org/dc/elements/1.1/"
   xmlns:cc="http://creativecommons.org/ns#"
   xmlns:rdf="http://www.w3.org/1999/02/22-rdf-syntax-ns#"
   xmlns:svg="http://www.w3.org/2000/svg"
   xmlns="http://www.w3.org/2000/svg"
   xmlns:sodipodi="http://sodipodi.sourceforge.net/DTD/sodipodi-0.dtd"
   xmlns:inkscape="http://www.inkscape.org/namespaces/inkscape"
   width="107.66677"
   height="49.526749"
   viewBox="0 0 28.486833 13.103952"
   version="1.1"
   id="svg5237"
   inkscape:version="0.92.0 r15299"
   sodipodi:docname="clover.svg">
  <defs
     id="defs5231" />
  <sodipodi:namedview
     id="base"
     pagecolor="#ffffff"
     bordercolor="#666666"
     borderopacity="1.0"
     inkscape:pageopacity="0.0"
     inkscape:pageshadow="2"
     inkscape:zoom="8.4093667"
     inkscape:cx="53.333386"
     inkscape:cy="24.263376"
     inkscape:document-units="mm"
     inkscape:current-layer="layer1"
     showgrid="false"
     fit-margin-top="0"
     fit-margin-left="0"
     fit-margin-right="0"
     fit-margin-bottom="0"
     units="px"
     inkscape:window-width="1280"
     inkscape:window-height="744"
     inkscape:window-x="-4"
     inkscape:window-y="-4"
     inkscape:window-maximized="1" />
  <metadata
     id="metadata5234">
    <rdf:RDF>
      <cc:Work
         rdf:about="">
        <dc:format>image/svg+xml</dc:format>
        <dc:type
           rdf:resource="http://purl.org/dc/dcmitype/StillImage" />
        <dc:title></dc:title>
      </cc:Work>
    </rdf:RDF>
  </metadata>
  <g
     inkscape:label="Layer 1"
     inkscape:groupmode="layer"
     id="layer1"
     transform="translate(-137.07935,-177.67883)">
    <g
       id="g5276"
       transform="translate(0.13229157,-0.13228959)">
      <path
         inkscape:connector-curvature="0"
         id="path4324"
         style="fill:#4f3c17;fill-opacity:1;fill-rule:nonzero;stroke:none;stroke-width:0.35277778"
         d="m 147.20689,190.08463 c -1.08161,0 -1.95897,-0.60325 -1.95897,-1.34761 0,-0.74436 0.87736,-1.34761 1.95897,-1.34761 1.08232,0 1.95898,0.60325 1.95898,1.34761 0,0.74436 -0.87666,1.34761 -1.95898,1.34761 m 0,-3.39408 c -1.58362,0 -2.86808,0.91617 -2.86808,2.04647 0,1.12959 1.28446,2.04576 2.86808,2.04576 1.58433,0 2.86809,-0.91617 2.86809,-2.04576 0,-1.1303 -1.28376,-2.04647 -2.86809,-2.04647" />
      <path
         inkscape:connector-curvature="0"
         id="path4326"
         style="fill:#4f3c17;fill-opacity:1;fill-rule:nonzero;stroke:none;stroke-width:0.35277778"
         d="m 154.92355,186.82708 -2.03976,3.08187 -1.90853,-3.08187 h -0.96978 l 2.39324,3.81388 h 0.96979 l 2.52483,-3.81388 z" />
      <path
         inkscape:connector-curvature="0"
         id="path4328"
         style="fill:#4f3c17;fill-opacity:1;fill-rule:nonzero;stroke:none;stroke-width:0.35277778"
         d="m 141.51694,189.54382 c -0.35701,0.32844 -0.92745,0.54081 -1.56951,0.54081 -1.08232,0 -1.95897,-0.60325 -1.95897,-1.34761 0,-0.74436 0.87665,-1.34761 1.95897,-1.34761 0.64206,0 1.2125,0.21237 1.56951,0.54116 l 0.77682,-0.37042 c -0.51929,-0.52599 -1.37654,-0.8696 -2.34633,-0.8696 -1.58397,0 -2.86808,0.91617 -2.86808,2.04647 0,1.12959 1.28411,2.04576 2.86808,2.04576 0.96979,0 1.82704,-0.3429 2.34633,-0.8689 z" />
      <path
         inkscape:connector-curvature="0"
         id="path4330"
         style="fill:#4f3c17;fill-opacity:1;fill-rule:nonzero;stroke:none;stroke-width:0.35277778"
         d="m 158.52259,187.38941 c 0.92569,0 1.64571,0.44273 1.85032,1.03611 h -3.78813 c 0.20461,-0.59338 1.01142,-1.03611 1.93781,-1.03611 m 0,2.69522 c -0.93627,0 -1.75119,-0.45226 -1.94486,-1.05586 h 4.60868 c 0,-0.1143 -0.004,-0.19262 -0.004,-0.29175 0,-1.1303 -1.27953,-2.04647 -2.6603,-2.04647 -1.58432,0 -2.75837,0.91617 -2.75837,2.04647 0,1.12959 1.17405,2.04576 2.75837,2.04576 1.58539,0 2.44722,-0.81316 2.55058,-0.91687 l -0.73589,-0.35066 c -0.62265,0.38452 -1.1116,0.56938 -1.81469,0.56938" />
      <path
         inkscape:connector-curvature="0"
         id="path4332"
         style="fill:#bfe6f9;fill-opacity:1;fill-rule:nonzero;stroke:none;stroke-width:0.35277778"
         d="m 153.43236,177.94343 c -2.1724,0 -3.42688,0.99942 -3.42688,3.45616 v 0.83362 c 0.0102,0 0.0198,6.8e-4 0.0296,6.8e-4 2.37631,0 4.30353,-1.91805 4.31941,-4.29048 z" />
      <path
         inkscape:connector-curvature="0"
         id="path4334"
         style="fill:#bfe6f9;fill-opacity:1;fill-rule:nonzero;stroke:none;stroke-width:0.35277778"
         d="m 152.87956,186.33213 c -1.82175,0 -2.87408,-0.83855 -2.87408,-2.89877 v -0.69921 c 0.008,0 0.0166,-3.5e-4 0.025,-3.5e-4 1.99284,0 3.60927,1.60867 3.62267,3.59833 z" />
      <path
         inkscape:connector-curvature="0"
         id="path4336"
         style="fill:#4f3c17;fill-opacity:1;fill-rule:nonzero;stroke:none;stroke-width:0.35277778"
         d="m 147.33142,182.73415 c -1.89477,0 -3.19969,0.66358 -3.87844,1.97132 -0.54786,1.05622 -0.54786,2.30435 -0.54786,3.04977 v 2.88572 h 0.81774 v -2.99508 c 0,-1.46968 0,-4.20406 3.60856,-4.20406 h 2.19393 v -0.70767 z" />
      <path
         inkscape:connector-curvature="0"
         id="path4338"
         style="fill:#bfe6f9;fill-opacity:1;fill-rule:nonzero;stroke:none;stroke-width:0.35277778"
         d="m 146.65091,179.93804 c 0,1.45556 0.66993,2.29587 2.31564,2.29587 h 0.55809 c 0,-0.007 7.2e-4,-0.013 7.2e-4,-0.0194 0,-1.59209 -1.28517,-2.88325 -2.87444,-2.89384 z" />
      <path
         inkscape:connector-curvature="0"
         id="path4340"
         style="fill:#4f3c17;fill-opacity:1;fill-rule:nonzero;stroke:none;stroke-width:0.35277778"
         d="m 164.76076,186.69055 c -0.78352,0 -1.48661,0.29881 -1.97344,0.71297 l -0.0924,-0.57891 h -0.67345 v 3.81635 h 0.76588 v -2.36961 c 0,-0.71049 1.32009,-0.86536 1.83339,-0.88653 0.0409,-0.001 0.0811,-0.003 0.12347,-0.003 h 0.55739 v -0.6911 z" />
      <path
         inkscape:connector-curvature="0"
         id="path4342"
         style="fill:#4f3c17;fill-opacity:1;fill-rule:nonzero;stroke:none;stroke-width:0.35277778"
         d="m 163.44948,190.1827 h 0.37042 v 0.0695 h -0.14534 v 0.38876 h -0.0804 v -0.38876 h -0.14464 z" />
      <path
         inkscape:connector-curvature="0"
         id="path4344"
         style="fill:#4f3c17;fill-opacity:1;fill-rule:nonzero;stroke:none;stroke-width:0.35277778"
         d="m 163.87176,190.1827 h 0.11289 l 0.12629,0.35878 h 0.001 l 0.12312,-0.35878 h 0.11148 v 0.45826 h -0.0762 v -0.35348 h -0.001 l -0.12665,0.35348 h -0.0663 l -0.127,-0.35348 h -0.001 v 0.35348 h -0.0765 z" />
    </g>
  </g>
</svg>
