<svg xmlns="http://www.w3.org/2000/svg" viewBox="96 144 390 104" fill="none">
  <path d="m67.36 27.082c-3.138 3.695-6.783 5.163-10.478 5.163-6.986 0-12.554-5.011-12.554-11.592 0-6.53 5.315-11.592 12.301-11.592 3.695 0 7.34 1.468 10.478 5.163l-4.657 3.291c-1.67-2.379-3.594-3.341-5.821-3.341-3.594 0-6.53 2.885-6.53 6.479 0 3.645 3.189 6.48 6.783 6.48 2.227 0 4.201-.962 5.922-3.139zm2.58-27.082h5.822v31.79h-5.822zm21.209 9.061c6.986 0 12.554 5.062 12.554 11.592s-5.568 11.592-12.554 11.592c-6.985 0-12.604-5.062-12.604-11.592s5.619-11.592 12.604-11.592zm0 18.274c3.645 0 6.986-2.936 6.986-6.682s-3.341-6.682-6.986-6.682c-3.695 0-6.985 2.936-6.985 6.682s3.29 6.682 6.985 6.682zm11.63-17.818h6.834l5.518 11.896 5.973-11.896h6.328l-12.301 23.64zm44.843 19.742c-2.227 1.873-5.315 2.986-8.554 2.986-6.986 0-12.605-5.062-12.605-11.592s5.113-11.592 12.098-11.592c6.986 0 11.541 5.062 11.541 11.592v1.671h-17.818c.81 2.936 3.645 5.011 6.784 5.011 1.923 0 3.594-.607 5.112-2.177zm-3.644-11.694c-.861-2.024-2.784-3.594-5.417-3.594-2.581 0-4.707 1.418-5.77 3.594zm8.979 1.722c0-5.316 4.05-9.77 10.63-9.77v5.213c-2.834 0-4.859 1.722-4.859 5.265v11.795h-5.771zm-134.931-8.854v9.013h-9.013c-4.978 0-9.013-4.044-9.013-9.018s4.035-9.008 9.011-9.008c4.978 0 9.015 4.039 9.015 9.013zm2.528 0c0-4.974 4.037-9.013 9.015-9.013 4.976 0 9.011 4.034 9.011 9.008s-4.035 9.018-9.013 9.018h-9.013zm0 20.554v-9.013h9.013c4.977 0 9.013 4.042 9.013 9.016 0 4.979-4.036 9.01-9.01 9.01-4.98 0-9.016-4.034-9.016-9.013zm-2.528 0c0 4.979-4.036 9.013-9.016 9.013-4.974 0-9.01-4.031-9.01-9.01 0-4.974 4.036-9.016 9.013-9.016h9.013zm-9.016 6.472c3.577 0 6.487-2.902 6.487-6.469v-6.486h-6.479c-3.578 0-6.49 2.921-6.49 6.486 0 3.567 2.908 6.469 6.482 6.469z" fill="#280" transform="matrix(2.25 0 0 2.25 95.9646 155)"/>

</svg>


