<svg xmlns="http://www.w3.org/2000/svg" viewBox="0 0 250 52" role="img" aria-label="WooCommerce">
  <rect x="0" y="5" width="42" height="42" rx="10" fill="#7f54b3"/>
  <path fill="#fff" d="M9.2 18.1h23.6c1.6 0 2.9 1.3 2.9 2.9v6.7c0 1.6-1.3 2.9-2.9 2.9H22l-5.7 3.7c-.8.5-1.8-.2-1.6-1.1l.7-2.6H9.2c-1.6 0-2.9-1.3-2.9-2.9V21c0-1.6 1.3-2.9 2.9-2.9Z"/>
  <path fill="#7f54b3" d="M11.5 21.5h2.7l.9 5.3 1.3-5.3h2.2l1.3 5.3.9-5.3h2.6l-2.1 7.8h-2.5l-1.3-4.9-1.3 4.9h-2.5l-2.2-7.8Zm15.9 8c-2.6 0-4.3-1.7-4.3-4.1s1.7-4.1 4.3-4.1 4.3 1.7 4.3 4.1-1.7 4.1-4.3 4.1Zm0-2.1c1.1 0 1.7-.7 1.7-2s-.6-2-1.7-2-1.7.7-1.7 2 .6 2 1.7 2Z"/>
  <text x="54" y="34" fill="#6f459b" font-family="Arial, Helvetica, sans-serif" font-size="25" font-weight="700">WooCommerce</text>
</svg>
