<svg xmlns="http://www.w3.org/2000/svg" width="1600" height="900" viewBox="0 0 1600 900" role="img" aria-labelledby="title desc">
  <title>Stock-to-Sales Risk Curve</title>
  <desc>Custom Coodra insight chart for stock-to-sales-ratio-guide</desc>
  <defs>
    <linearGradient id="bg" x1="0" y1="0" x2="1" y2="1">
      <stop offset="0%" stop-color="#f6fffd"/>
      <stop offset="100%" stop-color="#eef7ff"/>
    </linearGradient>
    <linearGradient id="line" x1="0" y1="0" x2="1" y2="0">
      <stop offset="0%" stop-color="#2fd7c6"/>
      <stop offset="100%" stop-color="#12b8a7"/>
    </linearGradient>
    <linearGradient id="area" x1="0" y1="0" x2="0" y2="1">
      <stop offset="0%" stop-color="#2fd7c6" stop-opacity="0.28"/>
      <stop offset="100%" stop-color="#2fd7c6" stop-opacity="0.02"/>
    </linearGradient>
    <filter id="shadow" x="-20%" y="-20%" width="140%" height="140%">
      <feDropShadow dx="0" dy="18" stdDeviation="18" flood-color="#0b2540" flood-opacity="0.12"/>
    </filter>
  </defs>

  <rect width="1600" height="900" fill="url(#bg)"/>
  <rect x="56" y="52" width="1488" height="796" rx="30" fill="#ffffff" stroke="#d4e4ee" stroke-width="2" filter="url(#shadow)"/>

  <text x="116" y="154" fill="#0a1a31" font-family="Inter, Arial, sans-serif" font-size="56" font-weight="800">Stock-to-Sales Risk Curve</text>
  <text x="116" y="196" fill="#4f6b87" font-family="Inter, Arial, sans-serif" font-size="26">Coodra retail intelligence snapshot</text>

  <line x1="112" y1="246" x2="1488" y2="246" stroke="#dce9f0" stroke-width="2"/>

  <g transform="translate(116,286)">
    <rect x="0" y="0" width="420" height="176" rx="18" fill="#f7fffd" stroke="#ccefe8"/>
    <text x="28" y="78" fill="#0fae9f" font-family="Inter, Arial, sans-serif" font-size="64" font-weight="800">4.0</text>
    <text x="28" y="126" fill="#3f5f7d" font-family="Inter, Arial, sans-serif" font-size="28">Watchline ratio</text>
  </g>

  <g transform="translate(586,286)">
    <rect x="0" y="0" width="420" height="176" rx="18" fill="#f7fffd" stroke="#ccefe8"/>
    <text x="28" y="78" fill="#0fae9f" font-family="Inter, Arial, sans-serif" font-size="64" font-weight="800">6.0</text>
    <text x="28" y="126" fill="#3f5f7d" font-family="Inter, Arial, sans-serif" font-size="28">Intervention ratio</text>
  </g>

  <g transform="translate(1056,286)">
    <rect x="0" y="0" width="420" height="176" rx="18" fill="#f7fffd" stroke="#ccefe8"/>
    <text x="28" y="78" fill="#0fae9f" font-family="Inter, Arial, sans-serif" font-size="64" font-weight="800">-18%</text>
    <text x="28" y="126" fill="#3f5f7d" font-family="Inter, Arial, sans-serif" font-size="28">Holding cost potential</text>
  </g>

  <g transform="translate(116,520)">
    <rect x="0" y="0" width="1360" height="260" rx="20" fill="#f9fcff" stroke="#d8e6f0"/>
    <g opacity="0.8">
      <line x1="40" y1="220" x2="1320" y2="220" stroke="#d9e9f2"/>
      <line x1="40" y1="160" x2="1320" y2="160" stroke="#e4eff6"/>
      <line x1="40" y1="100" x2="1320" y2="100" stroke="#eaf3f8"/>
    </g>
    <path d="M40 220 C180 210, 220 188, 320 182 C420 176, 480 156, 560 148 C640 140, 700 154, 780 146 C860 138, 930 118, 1020 112 C1110 106, 1190 94, 1320 58" fill="none" stroke="url(#line)" stroke-width="7" stroke-linecap="round"/>
    <path d="M40 220 C180 210, 220 188, 320 182 C420 176, 480 156, 560 148 C640 140, 700 154, 780 146 C860 138, 930 118, 1020 112 C1110 106, 1190 94, 1320 58 L1320 220 L40 220 Z" fill="url(#area)"/>
  </g>
</svg>
